<svg width="1340" height="250" viewBox="0 0 1340 250" fill="none" xmlns="http://www.w3.org/2000/svg">
<path d="M1 68.5711C337.707 -130.929 1040.55 186.571 1333.98 68.5711" stroke="url(#paint0_linear_113_48)"/>
<path d="M1 249.354C930.624 -28.7167 819.831 167.783 1333.98 249.354" stroke="url(#paint1_linear_113_48)"/>
<path d="M6.19385 76.7922C377.599 -127.306 1032.83 183.113 1339.17 76.7922" stroke="url(#paint2_linear_113_48)"/>
<path d="M6.19385 86.9576C411.651 -121.653 1020.15 181.817 1339.17 86.9576" stroke="url(#paint3_linear_113_48)"/>
<path d="M6.19385 97.0314C445.056 -116.006 1007.72 180.647 1339.17 97.0314" stroke="url(#paint4_linear_113_48)"/>
<path d="M6.19385 107.007C477.815 -110.371 995.522 179.596 1339.17 107.007" stroke="url(#paint5_linear_113_48)"/>
<path d="M6.19385 116.878C509.927 -104.756 983.568 178.658 1339.17 116.878" stroke="url(#paint6_linear_113_48)"/>
<path d="M6.19385 126.637C541.393 -99.1661 971.854 177.826 1339.17 126.637" stroke="url(#paint7_linear_113_48)"/>
<path d="M6.19385 136.278C572.213 -93.609 960.381 177.094 1339.17 136.278" stroke="url(#paint8_linear_113_48)"/>
<path d="M6.19385 145.795C602.386 -88.091 949.149 176.454 1339.17 145.795" stroke="url(#paint9_linear_113_48)"/>
<path d="M6.19385 155.18C631.913 -82.6184 938.157 175.901 1339.17 155.18" stroke="url(#paint10_linear_113_48)"/>
<path d="M6.19385 164.429C660.794 -77.1972 927.406 175.429 1339.17 164.429" stroke="url(#paint11_linear_113_48)"/>
<path d="M6.19385 173.534C689.028 -71.8337 916.895 175.03 1339.17 173.534" stroke="url(#paint12_linear_113_48)"/>
<path d="M6.19385 182.489C716.615 -66.5338 906.625 174.7 1339.17 182.489" stroke="url(#paint13_linear_113_48)"/>
<path d="M6.19385 191.291C743.557 -61.3027 896.596 174.433 1339.17 191.291" stroke="url(#paint14_linear_113_48)"/>
<path d="M6.19385 199.932C769.852 -56.1461 886.808 174.223 1339.17 199.932" stroke="url(#paint15_linear_113_48)"/>
<path d="M6.19385 208.408C795.5 -51.0688 877.259 174.067 1339.17 208.408" stroke="url(#paint16_linear_113_48)"/>
<path d="M6.19385 216.714C820.503 -46.0762 867.952 173.957 1339.17 216.714" stroke="url(#paint17_linear_113_48)"/>
<path d="M6.19385 224.845C844.858 -41.1722 858.885 173.89 1339.17 224.845" stroke="url(#paint18_linear_113_48)"/>
<path d="M6.19385 232.798C868.568 -36.3617 850.059 173.862 1339.17 232.798" stroke="url(#paint19_linear_113_48)"/>
<path d="M6.19385 240.567C891.631 -31.6484 841.474 173.869 1339.17 240.567" stroke="url(#paint20_linear_113_48)"/>
<path d="M6.19385 248.15C914.047 -27.0364 833.129 173.906 1339.17 248.15" stroke="url(#paint21_linear_113_48)"/>
<defs>
<linearGradient id="paint0_linear_113_48" x1="1" y1="48.3452" x2="1333.98" y2="48.3452" gradientUnits="userSpaceOnUse">
<stop stop-color="#B9D3E7"/>
<stop offset="1" stop-color="#677681"/>
</linearGradient>
<linearGradient id="paint1_linear_113_48" x1="1" y1="177.463" x2="1333.98" y2="177.463" gradientUnits="userSpaceOnUse">
<stop stop-color="#B9D3E7"/>
<stop offset="1" stop-color="#677681"/>
</linearGradient>
<linearGradient id="paint2_linear_113_48" x1="6.19385" y1="52.6174" x2="1339.17" y2="52.6174" gradientUnits="userSpaceOnUse">
<stop stop-color="#B9D3E7"/>
<stop offset="1" stop-color="#677681"/>
</linearGradient>
<linearGradient id="paint3_linear_113_48" x1="6.19385" y1="58.9638" x2="1339.17" y2="58.9638" gradientUnits="userSpaceOnUse">
<stop stop-color="#B9D3E7"/>
<stop offset="1" stop-color="#677681"/>
</linearGradient>
<linearGradient id="paint4_linear_113_48" x1="6.19385" y1="65.3603" x2="1339.17" y2="65.3603" gradientUnits="userSpaceOnUse">
<stop stop-color="#B9D3E7"/>
<stop offset="1" stop-color="#677681"/>
</linearGradient>
<linearGradient id="paint5_linear_113_48" x1="6.19385" y1="71.8128" x2="1339.17" y2="71.8128" gradientUnits="userSpaceOnUse">
<stop stop-color="#B9D3E7"/>
<stop offset="1" stop-color="#677681"/>
</linearGradient>
<linearGradient id="paint6_linear_113_48" x1="6.19385" y1="78.3274" x2="1339.17" y2="78.3274" gradientUnits="userSpaceOnUse">
<stop stop-color="#B9D3E7"/>
<stop offset="1" stop-color="#677681"/>
</linearGradient>
<linearGradient id="paint7_linear_113_48" x1="6.19385" y1="84.9112" x2="1339.17" y2="84.9112" gradientUnits="userSpaceOnUse">
<stop stop-color="#B9D3E7"/>
<stop offset="1" stop-color="#677681"/>
</linearGradient>
<linearGradient id="paint8_linear_113_48" x1="6.19385" y1="91.5726" x2="1339.17" y2="91.5726" gradientUnits="userSpaceOnUse">
<stop stop-color="#B9D3E7"/>
<stop offset="1" stop-color="#677681"/>
</linearGradient>
<linearGradient id="paint9_linear_113_48" x1="6.19385" y1="98.3198" x2="1339.17" y2="98.3198" gradientUnits="userSpaceOnUse">
<stop stop-color="#B9D3E7"/>
<stop offset="1" stop-color="#677681"/>
</linearGradient>
<linearGradient id="paint10_linear_113_48" x1="6.19385" y1="105.163" x2="1339.17" y2="105.163" gradientUnits="userSpaceOnUse">
<stop stop-color="#B9D3E7"/>
<stop offset="1" stop-color="#677681"/>
</linearGradient>
<linearGradient id="paint11_linear_113_48" x1="6.19385" y1="112.111" x2="1339.17" y2="112.111" gradientUnits="userSpaceOnUse">
<stop stop-color="#B9D3E7"/>
<stop offset="1" stop-color="#677681"/>
</linearGradient>
<linearGradient id="paint12_linear_113_48" x1="6.19385" y1="119.177" x2="1339.17" y2="119.177" gradientUnits="userSpaceOnUse">
<stop stop-color="#B9D3E7"/>
<stop offset="1" stop-color="#677681"/>
</linearGradient>
<linearGradient id="paint13_linear_113_48" x1="6.19385" y1="126.275" x2="1339.17" y2="126.275" gradientUnits="userSpaceOnUse">
<stop stop-color="#B9D3E7"/>
<stop offset="1" stop-color="#677681"/>
</linearGradient>
<linearGradient id="paint14_linear_113_48" x1="6.19385" y1="133.238" x2="1339.17" y2="133.238" gradientUnits="userSpaceOnUse">
<stop stop-color="#B9D3E7"/>
<stop offset="1" stop-color="#677681"/>
</linearGradient>
<linearGradient id="paint15_linear_113_48" x1="6.19385" y1="140.06" x2="1339.17" y2="140.06" gradientUnits="userSpaceOnUse">
<stop stop-color="#B9D3E7"/>
<stop offset="1" stop-color="#677681"/>
</linearGradient>
<linearGradient id="paint16_linear_113_48" x1="6.19385" y1="146.737" x2="1339.17" y2="146.737" gradientUnits="userSpaceOnUse">
<stop stop-color="#B9D3E7"/>
<stop offset="1" stop-color="#677681"/>
</linearGradient>
<linearGradient id="paint17_linear_113_48" x1="6.19385" y1="153.268" x2="1339.17" y2="153.268" gradientUnits="userSpaceOnUse">
<stop stop-color="#B9D3E7"/>
<stop offset="1" stop-color="#677681"/>
</linearGradient>
<linearGradient id="paint18_linear_113_48" x1="6.19385" y1="159.651" x2="1339.17" y2="159.651" gradientUnits="userSpaceOnUse">
<stop stop-color="#B9D3E7"/>
<stop offset="1" stop-color="#677681"/>
</linearGradient>
<linearGradient id="paint19_linear_113_48" x1="6.19385" y1="165.882" x2="1339.17" y2="165.882" gradientUnits="userSpaceOnUse">
<stop stop-color="#B9D3E7"/>
<stop offset="1" stop-color="#677681"/>
</linearGradient>
<linearGradient id="paint20_linear_113_48" x1="6.19385" y1="171.96" x2="1339.17" y2="171.96" gradientUnits="userSpaceOnUse">
<stop stop-color="#B9D3E7"/>
<stop offset="1" stop-color="#677681"/>
</linearGradient>
<linearGradient id="paint21_linear_113_48" x1="6.19385" y1="177.884" x2="1339.17" y2="177.884" gradientUnits="userSpaceOnUse">
<stop stop-color="#B9D3E7"/>
<stop offset="1" stop-color="#677681"/>
</linearGradient>
</defs>
</svg>
