<svg width="1512" height="955" viewBox="0 0 1512 955" fill="none" xmlns="http://www.w3.org/2000/svg">
<path d="M-54.0596 571.6C-18.9408 410.661 480.635 276.689 427.059 357.427C273.934 588.182 1235.81 146.626 1080.47 298.969C856.466 518.645 1417.11 257.815 1621.64 81.8186" stroke="url(#paint0_linear_452_5104)" stroke-width="2"/>
<path d="M-15.2334 872.827C18.4178 718.614 487.836 515.39 453.938 640.327C292.531 897.375 1279.19 443.387 1119.29 600.196C895.292 819.872 1455.94 559.042 1660.47 383.046" stroke="url(#paint1_linear_452_5104)" stroke-width="2"/>
<path d="M-52.8066 581.317C-17.7353 420.595 480.868 284.389 427.926 366.553C274.535 598.156 1237.21 156.199 1081.72 308.686C857.719 528.362 1418.37 267.532 1622.9 91.5354" stroke="url(#paint2_linear_452_5104)" stroke-width="2"/>
<path d="M-51.5537 591.033C-16.5297 430.529 481.1 292.089 428.794 375.678C275.135 608.13 1238.61 165.771 1082.97 318.403C858.972 538.079 1419.62 277.249 1624.15 101.252" stroke="url(#paint3_linear_452_5104)" stroke-width="2"/>
<path d="M-50.3017 600.751C-15.3251 440.463 481.332 299.789 429.661 384.804C275.734 618.104 1240.01 175.344 1084.22 328.12C860.224 547.796 1420.87 286.966 1625.4 110.969" stroke="url(#paint4_linear_452_5104)" stroke-width="2"/>
<path d="M-49.0498 610.468C-14.1204 450.397 481.564 307.49 430.527 393.931C276.334 628.078 1241.4 184.918 1085.48 337.837C861.475 557.513 1422.12 296.683 1626.65 120.687" stroke="url(#paint5_linear_452_5104)" stroke-width="2"/>
<path d="M-47.7969 620.185C-12.9149 460.331 481.797 315.19 431.395 403.056C276.934 638.052 1242.8 194.49 1086.73 347.554C862.728 567.23 1423.38 306.4 1627.91 130.404" stroke="url(#paint6_linear_452_5104)" stroke-width="2"/>
<path d="M-46.5449 629.902C-11.7102 470.265 482.028 322.889 432.261 412.182C277.534 648.026 1244.2 204.063 1087.98 357.271C863.98 576.947 1424.63 316.117 1629.16 140.12" stroke="url(#paint7_linear_452_5104)" stroke-width="2"/>
<path d="M-45.292 639.619C-10.5047 480.199 482.261 330.59 433.129 421.308C278.134 658 1245.6 213.636 1089.23 366.988C865.233 586.664 1425.88 325.834 1630.41 149.838" stroke="url(#paint8_linear_452_5104)" stroke-width="2"/>
<path d="M-44.039 649.336C-9.29907 490.133 482.494 338.29 433.996 430.434C278.734 667.974 1247 223.209 1090.49 376.705C866.486 596.381 1427.14 335.551 1631.66 159.554" stroke="url(#paint9_linear_452_5104)" stroke-width="2"/>
<path d="M-42.7871 659.053C-8.09445 500.067 482.726 345.99 434.863 439.56C279.334 677.948 1248.4 232.782 1091.74 386.422C867.738 606.098 1428.39 345.268 1632.92 169.272" stroke="url(#paint10_linear_452_5104)" stroke-width="2"/>
<path d="M-41.5351 668.77C-6.88984 510.001 482.958 353.69 435.73 448.685C279.933 687.922 1249.8 242.355 1092.99 396.139C868.99 615.815 1429.64 354.985 1634.17 178.988" stroke="url(#paint11_linear_452_5104)" stroke-width="2"/>
<path d="M-40.2822 678.486C-5.68425 519.934 483.19 361.389 436.597 457.811C280.534 697.896 1251.2 251.928 1094.24 405.856C870.243 625.532 1430.89 364.702 1635.42 188.705" stroke="url(#paint12_linear_452_5104)" stroke-width="2"/>
<path d="M-39.0303 688.204C-4.47964 529.869 483.422 369.09 437.464 466.937C281.133 707.87 1252.6 261.501 1095.49 415.573C871.495 635.249 1432.14 374.419 1636.67 198.423" stroke="url(#paint13_linear_452_5104)" stroke-width="2"/>
<path d="M-37.7773 697.921C-3.27405 539.802 483.655 376.79 438.331 476.063C281.733 717.844 1254 271.074 1096.75 425.29C872.748 644.966 1433.4 384.136 1637.93 208.139" stroke="url(#paint14_linear_452_5104)" stroke-width="2"/>
<path d="M-36.5244 707.638C-2.06846 549.737 483.888 384.49 439.199 485.189C282.334 727.818 1255.4 280.647 1098 435.007C874.001 654.683 1434.65 393.853 1639.18 217.857" stroke="url(#paint15_linear_452_5104)" stroke-width="2"/>
<path d="M-35.2724 717.355C-0.863848 559.67 484.12 392.19 440.065 494.314C282.933 737.792 1256.8 290.22 1099.25 444.724C875.253 664.4 1435.9 403.57 1640.43 227.573" stroke="url(#paint16_linear_452_5104)" stroke-width="2"/>
<path d="M-34.0205 727.072C0.340764 569.604 484.351 399.89 440.932 503.44C283.532 747.766 1258.2 299.793 1100.5 454.441C876.505 674.117 1437.15 413.287 1641.68 237.291" stroke="url(#paint17_linear_452_5104)" stroke-width="2"/>
<path d="M-32.7676 736.789C1.54635 579.538 484.584 407.59 441.799 512.566C284.133 757.74 1259.6 309.366 1101.76 464.158C877.758 683.834 1438.41 423.004 1642.94 247.008" stroke="url(#paint18_linear_452_5104)" stroke-width="2"/>
<path d="M-31.5156 746.505C2.75096 589.472 484.816 415.29 442.666 521.692C284.732 767.714 1261 318.938 1103.01 473.875C879.01 693.551 1439.66 432.721 1644.19 256.724" stroke="url(#paint19_linear_452_5104)" stroke-width="2"/>
<path d="M-30.2627 756.223C3.95655 599.406 485.049 422.99 443.534 530.818C285.333 777.688 1262.4 328.512 1104.26 483.592C880.263 703.268 1440.91 442.438 1645.44 266.442" stroke="url(#paint20_linear_452_5104)" stroke-width="2"/>
<path d="M-29.0097 765.94C5.16214 609.34 485.281 430.69 444.401 539.944C285.933 787.662 1263.79 338.085 1105.52 493.309C881.515 712.986 1442.16 452.155 1646.69 276.159" stroke="url(#paint21_linear_452_5104)" stroke-width="2"/>
<path d="M-27.7578 775.657C6.36675 619.274 485.513 438.39 445.268 549.069C286.532 797.636 1265.19 347.658 1106.77 503.026C882.767 722.702 1443.42 461.872 1647.95 285.876" stroke="url(#paint22_linear_452_5104)" stroke-width="2"/>
<path d="M-26.5058 785.374C7.57137 629.208 485.745 446.09 446.134 558.195C287.132 807.61 1266.59 357.231 1108.02 512.744C884.019 732.42 1444.67 471.589 1649.2 295.593" stroke="url(#paint23_linear_452_5104)" stroke-width="2"/>
<path d="M-25.2529 795.091C8.77695 639.142 485.978 453.79 447.002 567.321C287.732 817.584 1267.99 366.804 1109.27 522.46C885.272 742.136 1445.92 481.306 1650.45 305.31" stroke="url(#paint24_linear_452_5104)" stroke-width="2"/>
<path d="M-24.001 804.808C9.98157 649.076 486.21 461.49 447.868 576.447C288.332 827.558 1269.39 376.376 1110.52 532.177C886.524 751.853 1447.17 491.023 1651.7 315.027" stroke="url(#paint25_linear_452_5104)" stroke-width="2"/>
<path d="M-22.748 814.525C11.1872 659.01 486.442 469.19 448.736 585.573C288.932 837.532 1270.79 385.95 1111.78 541.894C887.777 761.571 1448.43 500.74 1652.96 324.744" stroke="url(#paint26_linear_452_5104)" stroke-width="2"/>
<path d="M-21.4961 824.242C12.3918 668.944 486.674 476.89 449.602 594.698C289.531 847.506 1272.19 395.522 1113.03 551.611C889.029 771.287 1449.68 510.457 1654.21 334.461" stroke="url(#paint27_linear_452_5104)" stroke-width="2"/>
<path d="M-20.2431 833.959C13.5974 678.878 486.907 484.59 450.47 603.824C290.132 857.479 1273.59 405.095 1114.28 561.328C890.282 781.004 1450.93 520.174 1655.46 344.177" stroke="url(#paint28_linear_452_5104)" stroke-width="2"/>
<path d="M-18.9912 843.676C14.802 688.812 487.139 492.29 451.337 612.95C290.731 867.454 1274.99 414.668 1115.53 571.045C891.534 790.721 1452.18 529.891 1656.71 353.895" stroke="url(#paint29_linear_452_5104)" stroke-width="2"/>
<path d="M-17.7392 853.393C16.0066 698.746 487.371 499.99 452.203 622.076C291.33 877.427 1276.39 424.241 1116.79 580.762C892.786 800.438 1453.44 539.608 1657.96 363.612" stroke="url(#paint30_linear_452_5104)" stroke-width="2"/>
<path d="M-16.4863 863.11C17.2122 708.68 487.603 507.691 453.071 631.202C291.931 887.402 1277.79 433.814 1118.04 590.479C894.039 810.156 1454.69 549.325 1659.22 373.329" stroke="url(#paint31_linear_452_5104)" stroke-width="2"/>
<defs>
<linearGradient id="paint0_linear_452_5104" x1="784.652" y1="149.442" x2="813.099" y2="501.539" gradientUnits="userSpaceOnUse">
<stop offset="0.37019" stop-color="#3EE98C"/>
<stop offset="0.58654" stop-color="#9463FF"/>
<stop offset="0.870199" stop-color="#83C7F0"/>
</linearGradient>
<linearGradient id="paint1_linear_452_5104" x1="823.479" y1="450.669" x2="851.926" y2="802.766" gradientUnits="userSpaceOnUse">
<stop offset="0.37019" stop-color="#3EE98C"/>
<stop offset="0.58654" stop-color="#9463FF"/>
<stop offset="0.870199" stop-color="#83C7F0"/>
</linearGradient>
<linearGradient id="paint2_linear_452_5104" x1="785.905" y1="159.158" x2="814.352" y2="511.256" gradientUnits="userSpaceOnUse">
<stop offset="0.37019" stop-color="#3EE98C"/>
<stop offset="0.58654" stop-color="#9463FF"/>
<stop offset="0.870199" stop-color="#83C7F0"/>
</linearGradient>
<linearGradient id="paint3_linear_452_5104" x1="787.158" y1="168.875" x2="815.605" y2="520.973" gradientUnits="userSpaceOnUse">
<stop offset="0.37019" stop-color="#3EE98C"/>
<stop offset="0.58654" stop-color="#9463FF"/>
<stop offset="0.870199" stop-color="#83C7F0"/>
</linearGradient>
<linearGradient id="paint4_linear_452_5104" x1="788.41" y1="178.592" x2="816.857" y2="530.69" gradientUnits="userSpaceOnUse">
<stop offset="0.37019" stop-color="#3EE98C"/>
<stop offset="0.58654" stop-color="#9463FF"/>
<stop offset="0.870199" stop-color="#83C7F0"/>
</linearGradient>
<linearGradient id="paint5_linear_452_5104" x1="789.662" y1="188.31" x2="818.109" y2="540.408" gradientUnits="userSpaceOnUse">
<stop offset="0.37019" stop-color="#3EE98C"/>
<stop offset="0.58654" stop-color="#9463FF"/>
<stop offset="0.870199" stop-color="#83C7F0"/>
</linearGradient>
<linearGradient id="paint6_linear_452_5104" x1="790.915" y1="198.026" x2="819.362" y2="550.124" gradientUnits="userSpaceOnUse">
<stop offset="0.37019" stop-color="#3EE98C"/>
<stop offset="0.58654" stop-color="#9463FF"/>
<stop offset="0.870199" stop-color="#83C7F0"/>
</linearGradient>
<linearGradient id="paint7_linear_452_5104" x1="792.167" y1="207.743" x2="820.614" y2="559.841" gradientUnits="userSpaceOnUse">
<stop offset="0.37019" stop-color="#3EE98C"/>
<stop offset="0.58654" stop-color="#9463FF"/>
<stop offset="0.870199" stop-color="#83C7F0"/>
</linearGradient>
<linearGradient id="paint8_linear_452_5104" x1="793.42" y1="217.461" x2="821.867" y2="569.558" gradientUnits="userSpaceOnUse">
<stop offset="0.37019" stop-color="#3EE98C"/>
<stop offset="0.58654" stop-color="#9463FF"/>
<stop offset="0.870199" stop-color="#83C7F0"/>
</linearGradient>
<linearGradient id="paint9_linear_452_5104" x1="794.673" y1="227.177" x2="823.12" y2="579.275" gradientUnits="userSpaceOnUse">
<stop offset="0.37019" stop-color="#3EE98C"/>
<stop offset="0.58654" stop-color="#9463FF"/>
<stop offset="0.870199" stop-color="#83C7F0"/>
</linearGradient>
<linearGradient id="paint10_linear_452_5104" x1="795.925" y1="236.895" x2="824.372" y2="588.993" gradientUnits="userSpaceOnUse">
<stop offset="0.37019" stop-color="#3EE98C"/>
<stop offset="0.58654" stop-color="#9463FF"/>
<stop offset="0.870199" stop-color="#83C7F0"/>
</linearGradient>
<linearGradient id="paint11_linear_452_5104" x1="797.177" y1="246.611" x2="825.624" y2="598.709" gradientUnits="userSpaceOnUse">
<stop offset="0.37019" stop-color="#3EE98C"/>
<stop offset="0.58654" stop-color="#9463FF"/>
<stop offset="0.870199" stop-color="#83C7F0"/>
</linearGradient>
<linearGradient id="paint12_linear_452_5104" x1="798.43" y1="256.328" x2="826.877" y2="608.426" gradientUnits="userSpaceOnUse">
<stop offset="0.37019" stop-color="#3EE98C"/>
<stop offset="0.58654" stop-color="#9463FF"/>
<stop offset="0.870199" stop-color="#83C7F0"/>
</linearGradient>
<linearGradient id="paint13_linear_452_5104" x1="799.682" y1="266.046" x2="828.129" y2="618.143" gradientUnits="userSpaceOnUse">
<stop offset="0.37019" stop-color="#3EE98C"/>
<stop offset="0.58654" stop-color="#9463FF"/>
<stop offset="0.870199" stop-color="#83C7F0"/>
</linearGradient>
<linearGradient id="paint14_linear_452_5104" x1="800.935" y1="275.762" x2="829.382" y2="627.86" gradientUnits="userSpaceOnUse">
<stop offset="0.37019" stop-color="#3EE98C"/>
<stop offset="0.58654" stop-color="#9463FF"/>
<stop offset="0.870199" stop-color="#83C7F0"/>
</linearGradient>
<linearGradient id="paint15_linear_452_5104" x1="802.188" y1="285.48" x2="830.635" y2="637.578" gradientUnits="userSpaceOnUse">
<stop offset="0.37019" stop-color="#3EE98C"/>
<stop offset="0.58654" stop-color="#9463FF"/>
<stop offset="0.870199" stop-color="#83C7F0"/>
</linearGradient>
<linearGradient id="paint16_linear_452_5104" x1="803.44" y1="295.196" x2="831.887" y2="647.294" gradientUnits="userSpaceOnUse">
<stop offset="0.37019" stop-color="#3EE98C"/>
<stop offset="0.58654" stop-color="#9463FF"/>
<stop offset="0.870199" stop-color="#83C7F0"/>
</linearGradient>
<linearGradient id="paint17_linear_452_5104" x1="804.692" y1="304.914" x2="833.139" y2="657.012" gradientUnits="userSpaceOnUse">
<stop offset="0.37019" stop-color="#3EE98C"/>
<stop offset="0.58654" stop-color="#9463FF"/>
<stop offset="0.870199" stop-color="#83C7F0"/>
</linearGradient>
<linearGradient id="paint18_linear_452_5104" x1="805.944" y1="314.63" x2="834.391" y2="666.728" gradientUnits="userSpaceOnUse">
<stop offset="0.37019" stop-color="#3EE98C"/>
<stop offset="0.58654" stop-color="#9463FF"/>
<stop offset="0.870199" stop-color="#83C7F0"/>
</linearGradient>
<linearGradient id="paint19_linear_452_5104" x1="807.196" y1="324.347" x2="835.643" y2="676.445" gradientUnits="userSpaceOnUse">
<stop offset="0.37019" stop-color="#3EE98C"/>
<stop offset="0.58654" stop-color="#9463FF"/>
<stop offset="0.870199" stop-color="#83C7F0"/>
</linearGradient>
<linearGradient id="paint20_linear_452_5104" x1="808.449" y1="334.065" x2="836.896" y2="686.162" gradientUnits="userSpaceOnUse">
<stop offset="0.37019" stop-color="#3EE98C"/>
<stop offset="0.58654" stop-color="#9463FF"/>
<stop offset="0.870199" stop-color="#83C7F0"/>
</linearGradient>
<linearGradient id="paint21_linear_452_5104" x1="809.702" y1="343.782" x2="838.149" y2="695.88" gradientUnits="userSpaceOnUse">
<stop offset="0.37019" stop-color="#3EE98C"/>
<stop offset="0.58654" stop-color="#9463FF"/>
<stop offset="0.870199" stop-color="#83C7F0"/>
</linearGradient>
<linearGradient id="paint22_linear_452_5104" x1="810.954" y1="353.499" x2="839.401" y2="705.597" gradientUnits="userSpaceOnUse">
<stop offset="0.37019" stop-color="#3EE98C"/>
<stop offset="0.58654" stop-color="#9463FF"/>
<stop offset="0.870199" stop-color="#83C7F0"/>
</linearGradient>
<linearGradient id="paint23_linear_452_5104" x1="812.206" y1="363.216" x2="840.653" y2="715.314" gradientUnits="userSpaceOnUse">
<stop offset="0.37019" stop-color="#3EE98C"/>
<stop offset="0.58654" stop-color="#9463FF"/>
<stop offset="0.870199" stop-color="#83C7F0"/>
</linearGradient>
<linearGradient id="paint24_linear_452_5104" x1="813.459" y1="372.933" x2="841.906" y2="725.031" gradientUnits="userSpaceOnUse">
<stop offset="0.37019" stop-color="#3EE98C"/>
<stop offset="0.58654" stop-color="#9463FF"/>
<stop offset="0.870199" stop-color="#83C7F0"/>
</linearGradient>
<linearGradient id="paint25_linear_452_5104" x1="814.711" y1="382.65" x2="843.158" y2="734.747" gradientUnits="userSpaceOnUse">
<stop offset="0.37019" stop-color="#3EE98C"/>
<stop offset="0.58654" stop-color="#9463FF"/>
<stop offset="0.870199" stop-color="#83C7F0"/>
</linearGradient>
<linearGradient id="paint26_linear_452_5104" x1="815.964" y1="392.367" x2="844.411" y2="744.465" gradientUnits="userSpaceOnUse">
<stop offset="0.37019" stop-color="#3EE98C"/>
<stop offset="0.58654" stop-color="#9463FF"/>
<stop offset="0.870199" stop-color="#83C7F0"/>
</linearGradient>
<linearGradient id="paint27_linear_452_5104" x1="817.216" y1="402.084" x2="845.663" y2="754.182" gradientUnits="userSpaceOnUse">
<stop offset="0.37019" stop-color="#3EE98C"/>
<stop offset="0.58654" stop-color="#9463FF"/>
<stop offset="0.870199" stop-color="#83C7F0"/>
</linearGradient>
<linearGradient id="paint28_linear_452_5104" x1="818.469" y1="411.8" x2="846.916" y2="763.898" gradientUnits="userSpaceOnUse">
<stop offset="0.37019" stop-color="#3EE98C"/>
<stop offset="0.58654" stop-color="#9463FF"/>
<stop offset="0.870199" stop-color="#83C7F0"/>
</linearGradient>
<linearGradient id="paint29_linear_452_5104" x1="819.721" y1="421.518" x2="848.168" y2="773.616" gradientUnits="userSpaceOnUse">
<stop offset="0.37019" stop-color="#3EE98C"/>
<stop offset="0.58654" stop-color="#9463FF"/>
<stop offset="0.870199" stop-color="#83C7F0"/>
</linearGradient>
<linearGradient id="paint30_linear_452_5104" x1="820.973" y1="431.234" x2="849.42" y2="783.332" gradientUnits="userSpaceOnUse">
<stop offset="0.37019" stop-color="#3EE98C"/>
<stop offset="0.58654" stop-color="#9463FF"/>
<stop offset="0.870199" stop-color="#83C7F0"/>
</linearGradient>
<linearGradient id="paint31_linear_452_5104" x1="822.226" y1="440.952" x2="850.673" y2="793.05" gradientUnits="userSpaceOnUse">
<stop offset="0.37019" stop-color="#3EE98C"/>
<stop offset="0.58654" stop-color="#9463FF"/>
<stop offset="0.870199" stop-color="#83C7F0"/>
</linearGradient>
</defs>
</svg>
